<svg xmlns="http://www.w3.org/2000/svg" width="1100" height="450" viewBox="0 0 1100 450"><style>text{font-family:Arial,sans-serif;font-size:19px}.a{stroke:black;stroke-width:2}.p{fill:none;stroke:black;stroke-width:3}</style><text x="50" y="35">Flat-top sampling</text><path class="a" d="M50 270H1030M540 60V330"/><path class="p" d="M80 270V235H125V270 M155 270V205H200V270 M230 270V170H275V270 M305 270V145H350V270 M380 270V115H425V270 M455 270V95H500V270 M575 270V120H620V270 M650 270V150H695V270 M725 270V185H770V270 M800 270V220H845V270 M875 270V250H920V270"/><rect x="500" y="80" width="45" height="70" fill="none" stroke="black" stroke-width="2"/><text x="470" y="375">Sample-and-hold keeps each sample approximately constant for Tₐ.</text></svg>